<?xml version="1.0" encoding="UTF-8" standalone="no"?>
<!DOCTYPE svg PUBLIC "-//W3C//DTD SVG 1.1//EN"
 "http://www.w3.org/Graphics/SVG/1.1/DTD/svg11.dtd">
<!-- Generated by graphviz version 2.43.0 (0)
 -->
<!-- Title: packages_SDV_Logic Pages: 1 -->
<svg width="1245pt" height="188pt"
 viewBox="0.00 0.00 1244.50 188.00" xmlns="http://www.w3.org/2000/svg" xmlns:xlink="http://www.w3.org/1999/xlink">
<g id="graph0" class="graph" transform="scale(1 1) rotate(0) translate(4 184)">
<title>packages_SDV_Logic</title>
<polygon fill="white" stroke="transparent" points="-4,4 -4,-184 1240.5,-184 1240.5,4 -4,4"/>
<!-- Logic_main -->
<g id="node1" class="node">
<title>Logic_main</title>
<polygon fill="#77aadd" stroke="#77aadd" points="559,-36 462,-36 462,0 559,0 559,-36"/>
<text text-anchor="middle" x="510.5" y="-14.3" font-family="Times,serif" font-size="14.00">Logic_main</text>
</g>
<!-- auto_lock -->
<g id="node2" class="node">
<title>auto_lock</title>
<polygon fill="#99ddff" stroke="#99ddff" points="83,-108 0,-108 0,-72 83,-72 83,-108"/>
<text text-anchor="middle" x="41.5" y="-86.3" font-family="Times,serif" font-size="14.00">auto_lock</text>
</g>
<!-- Logic_main&#45;&gt;auto_lock -->
<g id="edge1" class="edge">
<title>Logic_main&#45;&gt;auto_lock</title>
<path fill="none" stroke="black" d="M461.87,-21.95C385.04,-27.31 230.94,-40.89 92.96,-71.9"/>
<polygon fill="black" stroke="black" points="83.06,-74.17 91.81,-67.55 87.93,-73.05 92.81,-71.94 92.81,-71.94 92.81,-71.94 87.93,-73.05 93.81,-76.33 83.06,-74.17 83.06,-74.17"/>
</g>
<!-- config_loader -->
<g id="node3" class="node">
<title>config_loader</title>
<polygon fill="#44bb99" stroke="#44bb99" points="212,-108 101,-108 101,-72 212,-72 212,-108"/>
<text text-anchor="middle" x="156.5" y="-86.3" font-family="Times,serif" font-size="14.00">config_loader</text>
</g>
<!-- Logic_main&#45;&gt;config_loader -->
<g id="edge2" class="edge">
<title>Logic_main&#45;&gt;config_loader</title>
<path fill="none" stroke="black" d="M461.77,-26.7C405.99,-35.78 311.71,-51.95 222.06,-71.73"/>
<polygon fill="black" stroke="black" points="212.28,-73.91 221.07,-67.34 217.16,-72.82 222.05,-71.73 222.05,-71.73 222.05,-71.73 217.16,-72.82 223.02,-76.12 212.28,-73.91 212.28,-73.91"/>
</g>
<!-- indicator_logic -->
<g id="node4" class="node">
<title>indicator_logic</title>
<polygon fill="#bbcc33" stroke="#bbcc33" points="351,-108 230,-108 230,-72 351,-72 351,-108"/>
<text text-anchor="middle" x="290.5" y="-86.3" font-family="Times,serif" font-size="14.00">indicator_logic</text>
</g>
<!-- Logic_main&#45;&gt;indicator_logic -->
<g id="edge3" class="edge">
<title>Logic_main&#45;&gt;indicator_logic</title>
<path fill="none" stroke="black" d="M461.95,-34.45C430.16,-44.56 388.29,-57.88 353.89,-68.83"/>
<polygon fill="black" stroke="black" points="343.94,-72 352.1,-64.68 348.7,-70.48 353.47,-68.96 353.47,-68.96 353.47,-68.96 348.7,-70.48 354.83,-73.25 343.94,-72 343.94,-72"/>
</g>
<!-- kuksa_connection -->
<g id="node5" class="node">
<title>kuksa_connection</title>
<polygon fill="#aaaa00" stroke="#aaaa00" points="636.5,-180 494.5,-180 494.5,-144 636.5,-144 636.5,-180"/>
<text text-anchor="middle" x="565.5" y="-158.3" font-family="Times,serif" font-size="14.00">kuksa_connection</text>
</g>
<!-- Logic_main&#45;&gt;kuksa_connection -->
<g id="edge4" class="edge">
<title>Logic_main&#45;&gt;kuksa_connection</title>
<path fill="none" stroke="black" d="M461.82,-29.23C438.42,-36.86 412.48,-49.92 398.5,-72 389.94,-85.52 389.05,-95.09 398.5,-108 418.36,-135.14 452.22,-148.72 484.27,-155.4"/>
<polygon fill="black" stroke="black" points="494.15,-157.25 483.49,-159.83 489.23,-156.33 484.32,-155.41 484.32,-155.41 484.32,-155.41 489.23,-156.33 485.15,-150.98 494.15,-157.25 494.15,-157.25"/>
</g>
<!-- lights_logic -->
<g id="node6" class="node">
<title>lights_logic</title>
<polygon fill="#eedd88" stroke="#eedd88" points="505.5,-108 407.5,-108 407.5,-72 505.5,-72 505.5,-108"/>
<text text-anchor="middle" x="456.5" y="-86.3" font-family="Times,serif" font-size="14.00">lights_logic</text>
</g>
<!-- Logic_main&#45;&gt;lights_logic -->
<g id="edge5" class="edge">
<title>Logic_main&#45;&gt;lights_logic</title>
<path fill="none" stroke="black" d="M497.15,-36.3C490.74,-44.61 482.94,-54.72 475.89,-63.86"/>
<polygon fill="black" stroke="black" points="469.69,-71.9 472.24,-61.23 472.75,-67.94 475.8,-63.98 475.8,-63.98 475.8,-63.98 472.75,-67.94 479.37,-66.73 469.69,-71.9 469.69,-71.9"/>
</g>
<!-- pdc_logic -->
<g id="node7" class="node">
<title>pdc_logic</title>
<polygon fill="#ee8866" stroke="#ee8866" points="607,-108 524,-108 524,-72 607,-72 607,-108"/>
<text text-anchor="middle" x="565.5" y="-86.3" font-family="Times,serif" font-size="14.00">pdc_logic</text>
</g>
<!-- Logic_main&#45;&gt;pdc_logic -->
<g id="edge6" class="edge">
<title>Logic_main&#45;&gt;pdc_logic</title>
<path fill="none" stroke="black" d="M524.1,-36.3C530.62,-44.61 538.57,-54.72 545.75,-63.86"/>
<polygon fill="black" stroke="black" points="552.06,-71.9 542.34,-66.81 548.97,-67.96 545.88,-64.03 545.88,-64.03 545.88,-64.03 548.97,-67.96 549.42,-61.25 552.06,-71.9 552.06,-71.9"/>
</g>
<!-- powertrain_safety_logic -->
<g id="node8" class="node">
<title>powertrain_safety_logic</title>
<polygon fill="#ffaabb" stroke="#ffaabb" points="811.5,-108 625.5,-108 625.5,-72 811.5,-72 811.5,-108"/>
<text text-anchor="middle" x="718.5" y="-86.3" font-family="Times,serif" font-size="14.00">powertrain_safety_logic</text>
</g>
<!-- Logic_main&#45;&gt;powertrain_safety_logic -->
<g id="edge7" class="edge">
<title>Logic_main&#45;&gt;powertrain_safety_logic</title>
<path fill="none" stroke="black" d="M559,-35.32C588.6,-45.28 626.66,-58.09 658.19,-68.7"/>
<polygon fill="black" stroke="black" points="667.74,-71.92 656.83,-72.99 663,-70.32 658.26,-68.73 658.26,-68.73 658.26,-68.73 663,-70.32 659.7,-64.46 667.74,-71.92 667.74,-71.92"/>
</g>
<!-- start_sequence -->
<g id="node9" class="node">
<title>start_sequence</title>
<polygon fill="#dddddd" stroke="#dddddd" points="954,-108 829,-108 829,-72 954,-72 954,-108"/>
<text text-anchor="middle" x="891.5" y="-86.3" font-family="Times,serif" font-size="14.00">start_sequence</text>
</g>
<!-- Logic_main&#45;&gt;start_sequence -->
<g id="edge8" class="edge">
<title>Logic_main&#45;&gt;start_sequence</title>
<path fill="none" stroke="black" d="M559.01,-26.28C618.15,-35.39 721.36,-51.99 818.81,-71.72"/>
<polygon fill="black" stroke="black" points="828.83,-73.76 818.13,-76.17 823.93,-72.76 819.03,-71.76 819.03,-71.76 819.03,-71.76 823.93,-72.76 819.93,-67.35 828.83,-73.76 828.83,-73.76"/>
</g>
<!-- unreal_receiver -->
<g id="node10" class="node">
<title>unreal_receiver</title>
<polygon fill="#77aadd" stroke="#77aadd" points="1100.5,-108 972.5,-108 972.5,-72 1100.5,-72 1100.5,-108"/>
<text text-anchor="middle" x="1036.5" y="-86.3" font-family="Times,serif" font-size="14.00">unreal_receiver</text>
</g>
<!-- Logic_main&#45;&gt;unreal_receiver -->
<g id="edge9" class="edge">
<title>Logic_main&#45;&gt;unreal_receiver</title>
<path fill="none" stroke="black" d="M559.03,-22.88C640.43,-29.77 809.76,-45.79 962.46,-71.93"/>
<polygon fill="black" stroke="black" points="972.49,-73.66 961.87,-76.39 967.56,-72.81 962.64,-71.96 962.64,-71.96 962.64,-71.96 967.56,-72.81 963.4,-67.53 972.49,-73.66 972.49,-73.66"/>
</g>
<!-- unreal_sender -->
<g id="node11" class="node">
<title>unreal_sender</title>
<polygon fill="#99ddff" stroke="#99ddff" points="1236.5,-108 1118.5,-108 1118.5,-72 1236.5,-72 1236.5,-108"/>
<text text-anchor="middle" x="1177.5" y="-86.3" font-family="Times,serif" font-size="14.00">unreal_sender</text>
</g>
<!-- Logic_main&#45;&gt;unreal_sender -->
<g id="edge10" class="edge">
<title>Logic_main&#45;&gt;unreal_sender</title>
<path fill="none" stroke="black" d="M559.36,-20.73C660.32,-24.86 899.32,-37.53 1108.35,-71.96"/>
<polygon fill="black" stroke="black" points="1118.28,-73.61 1107.67,-76.41 1113.35,-72.79 1108.41,-71.97 1108.41,-71.97 1108.41,-71.97 1113.35,-72.79 1109.15,-67.53 1118.28,-73.61 1118.28,-73.61"/>
</g>
<!-- auto_lock&#45;&gt;kuksa_connection -->
<g id="edge11" class="edge">
<title>auto_lock&#45;&gt;kuksa_connection</title>
<path fill="none" stroke="black" d="M83.05,-105.88C85.89,-106.66 88.73,-107.38 91.5,-108 227.37,-138.32 389.22,-151.67 484.32,-157.27"/>
<polygon fill="black" stroke="black" points="494.44,-157.85 484.2,-161.77 489.45,-157.56 484.46,-157.28 484.46,-157.28 484.46,-157.28 489.45,-157.56 484.72,-152.79 494.44,-157.85 494.44,-157.85"/>
</g>
<!-- indicator_logic&#45;&gt;kuksa_connection -->
<g id="edge12" class="edge">
<title>indicator_logic&#45;&gt;kuksa_connection</title>
<path fill="none" stroke="black" d="M351.19,-106.45C391.69,-116.76 445.28,-130.4 488.74,-141.46"/>
<polygon fill="black" stroke="black" points="498.7,-144 487.9,-145.89 493.86,-142.76 489.01,-141.53 489.01,-141.53 489.01,-141.53 493.86,-142.76 490.12,-137.17 498.7,-144 498.7,-144"/>
</g>
<!-- lights_logic&#45;&gt;kuksa_connection -->
<g id="edge13" class="edge">
<title>lights_logic&#45;&gt;kuksa_connection</title>
<path fill="none" stroke="black" d="M483.16,-108.12C497.28,-117.19 514.81,-128.45 530.06,-138.24"/>
<polygon fill="black" stroke="black" points="538.73,-143.81 527.89,-142.19 534.53,-141.11 530.32,-138.41 530.32,-138.41 530.32,-138.41 534.53,-141.11 532.75,-134.62 538.73,-143.81 538.73,-143.81"/>
</g>
<!-- pdc_logic&#45;&gt;kuksa_connection -->
<g id="edge14" class="edge">
<title>pdc_logic&#45;&gt;kuksa_connection</title>
<path fill="none" stroke="black" d="M565.5,-108.3C565.5,-116.02 565.5,-125.29 565.5,-133.89"/>
<polygon fill="black" stroke="black" points="565.5,-143.9 561,-133.9 565.5,-138.9 565.5,-133.9 565.5,-133.9 565.5,-133.9 565.5,-138.9 570,-133.9 565.5,-143.9 565.5,-143.9"/>
</g>
<!-- powertrain_safety_logic&#45;&gt;kuksa_connection -->
<g id="edge15" class="edge">
<title>powertrain_safety_logic&#45;&gt;kuksa_connection</title>
<path fill="none" stroke="black" d="M681.07,-108.12C660.25,-117.65 634.15,-129.59 612.02,-139.72"/>
<polygon fill="black" stroke="black" points="602.81,-143.93 610.03,-135.68 607.35,-141.85 611.9,-139.77 611.9,-139.77 611.9,-139.77 607.35,-141.85 613.77,-143.86 602.81,-143.93 602.81,-143.93"/>
</g>
<!-- start_sequence&#45;&gt;kuksa_connection -->
<g id="edge16" class="edge">
<title>start_sequence&#45;&gt;kuksa_connection</title>
<path fill="none" stroke="black" d="M828.8,-106.12C826,-106.76 823.22,-107.39 820.5,-108 762.38,-121 696.56,-134.65 646.35,-144.84"/>
<polygon fill="black" stroke="black" points="636.52,-146.83 645.43,-140.44 641.42,-145.84 646.32,-144.85 646.32,-144.85 646.32,-144.85 641.42,-145.84 647.22,-149.26 636.52,-146.83 636.52,-146.83"/>
</g>
<!-- unreal_receiver&#45;&gt;kuksa_connection -->
<g id="edge17" class="edge">
<title>unreal_receiver&#45;&gt;kuksa_connection</title>
<path fill="none" stroke="black" d="M972.48,-106.28C969.45,-106.88 966.44,-107.46 963.5,-108 854.5,-127.9 727.42,-143.52 646.73,-152.5"/>
<polygon fill="black" stroke="black" points="636.64,-153.62 646.08,-148.05 641.61,-153.07 646.58,-152.52 646.58,-152.52 646.58,-152.52 641.61,-153.07 647.07,-156.99 636.64,-153.62 636.64,-153.62"/>
</g>
<!-- unreal_sender&#45;&gt;kuksa_connection -->
<g id="edge18" class="edge">
<title>unreal_sender&#45;&gt;kuksa_connection</title>
<path fill="none" stroke="black" d="M1118.27,-106.35C1115.31,-106.95 1112.38,-107.5 1109.5,-108 946.67,-136.13 753.66,-150.51 646.86,-156.84"/>
<polygon fill="black" stroke="black" points="636.8,-157.42 646.52,-152.35 641.79,-157.13 646.78,-156.84 646.78,-156.84 646.78,-156.84 641.79,-157.13 647.05,-161.33 636.8,-157.42 636.8,-157.42"/>
</g>
</g>
</svg>
